<svg width="74" height="74" viewBox="0 0 74 74" fill="none" xmlns="http://www.w3.org/2000/svg">
<path d="M64.9469 12.957L64.8479 12.8951L52.3325 6.72925L38.8241 24.7403L45.039 33.0273C44.853 36.1525 43.5277 39.1011 41.3139 41.3149C39.1001 43.5286 36.1515 44.8539 33.0263 45.0399L24.7394 38.825L6.72852 52.3331L12.8431 64.7438L12.8945 64.8486L12.9565 64.9474C13.2828 65.4732 13.7383 65.9067 14.2795 66.2067C14.8207 66.5067 15.4297 66.6631 16.0485 66.6612H19.2779C25.5003 66.6612 31.6617 65.4356 37.4104 63.0544C43.1591 60.6732 48.3826 57.183 52.7824 52.7831C57.1823 48.3832 60.6725 43.1598 63.0537 37.411C65.4349 31.6623 66.6604 25.5008 66.6604 19.2785V16.0489C66.6624 15.4301 66.506 14.8212 66.206 14.2799C65.9061 13.7387 65.4726 13.2833 64.9469 12.957ZM62.0354 19.2785C62.0354 42.8551 42.8544 62.0362 19.2779 62.0362H16.6648L12.5736 53.731L24.7403 44.606L31.514 49.6861H32.2848C36.8984 49.6809 41.3216 47.8459 44.5839 44.5836C47.8462 41.3213 49.6812 36.8981 49.6864 32.2845V31.5138L44.6063 24.7402L53.7302 12.5742L62.0354 16.6661V19.2785Z" fill="white"/>
</svg>
