<svg width="24" height="24" viewBox="0 0 24 24" fill="none" xmlns="http://www.w3.org/2000/svg">
<path d="M11.9991 8.87584C10.2788 8.87584 8.87492 10.2797 8.87492 12.0001C8.87492 13.7204 10.2788 15.1243 11.9991 15.1243C13.7194 15.1243 15.1234 13.7204 15.1234 12.0001C15.1234 10.2797 13.7194 8.87584 11.9991 8.87584ZM21.3694 12.0001C21.3694 10.7063 21.3812 9.42428 21.3085 8.13287C21.2359 6.63287 20.8937 5.30162 19.7968 4.20475C18.6976 3.10553 17.3687 2.76569 15.8687 2.69303C14.5749 2.62037 13.2929 2.63209 12.0015 2.63209C10.7077 2.63209 9.4257 2.62037 8.13429 2.69303C6.63429 2.76569 5.30304 3.10787 4.20617 4.20475C3.10695 5.30397 2.7671 6.63287 2.69445 8.13287C2.62179 9.42662 2.63351 10.7087 2.63351 12.0001C2.63351 13.2915 2.62179 14.5758 2.69445 15.8672C2.7671 17.3672 3.10929 18.6985 4.20617 19.7954C5.30538 20.8946 6.63429 21.2344 8.13429 21.3071C9.42804 21.3797 10.7101 21.368 12.0015 21.368C13.2952 21.368 14.5773 21.3797 15.8687 21.3071C17.3687 21.2344 18.6999 20.8922 19.7968 19.7954C20.896 18.6962 21.2359 17.3672 21.3085 15.8672C21.3835 14.5758 21.3694 13.2938 21.3694 12.0001ZM11.9991 16.8071C9.33898 16.8071 7.1921 14.6602 7.1921 12.0001C7.1921 9.3399 9.33898 7.19303 11.9991 7.19303C14.6593 7.19303 16.8062 9.3399 16.8062 12.0001C16.8062 14.6602 14.6593 16.8071 11.9991 16.8071ZM17.003 8.11881C16.3819 8.11881 15.8804 7.61725 15.8804 6.99615C15.8804 6.37506 16.3819 5.8735 17.003 5.8735C17.6241 5.8735 18.1257 6.37506 18.1257 6.99615C18.1259 7.14364 18.097 7.28971 18.0406 7.426C17.9843 7.56229 17.9016 7.68612 17.7973 7.79041C17.693 7.89469 17.5692 7.97738 17.4329 8.03373C17.2966 8.09008 17.1505 8.119 17.003 8.11881Z" fill="white"/>
</svg>
