<svg width="72" height="49" viewBox="0 0 72 49" fill="none" xmlns="http://www.w3.org/2000/svg">
<path d="M67.5 0H4.5C3.30653 0 2.16193 0.430207 1.31802 1.19598C0.474106 1.96175 0 3.00037 0 4.08333V44.9167C0 45.9996 0.474106 47.0382 1.31802 47.804C2.16193 48.5698 3.30653 49 4.5 49H67.5C68.6935 49 69.8381 48.5698 70.682 47.804C71.5259 47.0382 72 45.9996 72 44.9167V4.08333C72 3.00037 71.5259 1.96175 70.682 1.19598C69.8381 0.430207 68.6935 0 67.5 0V0ZM64.035 44.9167H8.235L23.985 30.135L20.745 27.2971L4.5 42.5483V7.18667L32.4675 32.4421C33.3106 33.2026 34.4512 33.6295 35.64 33.6295C36.8288 33.6295 37.9694 33.2026 38.8125 32.4421L67.5 6.55375V42.2829L50.94 27.2563L47.7675 30.135L64.035 44.9167ZM7.4475 4.08333H63.855L35.64 29.5429L7.4475 4.08333Z" fill="white"/>
</svg>
