<svg width="22" height="22" viewBox="0 0 22 22" fill="none" xmlns="http://www.w3.org/2000/svg">
<path fill-rule="evenodd" clip-rule="evenodd" d="M8.6439 8.22164H12.0484V9.91748C12.5388 8.94214 13.7965 8.06581 15.6857 8.06581C19.3075 8.06581 20.1673 10.0073 20.1673 13.5695V20.1667H16.5007V14.3807C16.5007 12.3521 16.0102 11.2081 14.7617 11.2081C13.0302 11.2081 12.3106 12.4411 12.3106 14.3798V20.1667H8.6439V8.22164ZM2.35648 20.0109H6.02315V8.06581H2.35648V20.0109ZM6.5484 4.1709C6.54854 4.47823 6.48759 4.78253 6.36909 5.0661C6.25059 5.34967 6.07692 5.60687 5.85815 5.82273C5.41485 6.2633 4.81481 6.50991 4.18982 6.5084C3.56592 6.50798 2.96727 6.26199 2.52332 5.82365C2.30534 5.60705 2.13225 5.34957 2.01397 5.06596C1.89568 4.78235 1.83452 4.47818 1.83398 4.1709C1.83398 3.55031 2.08148 2.95631 2.52423 2.51815C2.9678 2.07921 3.5667 1.83312 4.19073 1.8334C4.8159 1.8334 5.4154 2.07998 5.85815 2.51815C6.29998 2.95631 6.5484 3.55031 6.5484 4.1709Z" fill="white"/>
</svg>
