<svg width="28" height="28" viewBox="0 0 28 28" fill="none" xmlns="http://www.w3.org/2000/svg">
<path d="M25.7387 8.09655C25.5992 7.57712 25.3258 7.10343 24.9457 6.72289C24.5656 6.34235 24.0923 6.06831 23.573 5.92819C21.6617 5.41412 14 5.41412 14 5.41412C14 5.41412 6.33828 5.41412 4.42695 5.92545C3.90748 6.06512 3.4339 6.33901 3.05377 6.71962C2.67364 7.10023 2.40034 7.57416 2.26133 8.09381C1.75 10.0079 1.75 14.0001 1.75 14.0001C1.75 14.0001 1.75 17.9922 2.26133 19.9036C2.54297 20.959 3.37422 21.7903 4.42695 22.0719C6.33828 22.586 14 22.586 14 22.586C14 22.586 21.6617 22.586 23.573 22.0719C24.6285 21.7903 25.457 20.959 25.7387 19.9036C26.25 17.9922 26.25 14.0001 26.25 14.0001C26.25 14.0001 26.25 10.0079 25.7387 8.09655ZM11.5664 17.6641V10.336L17.9102 13.9727L11.5664 17.6641Z" fill="white"/>
</svg>
