<svg xmlns="http://www.w3.org/2000/svg" xmlns:xlink="http://www.w3.org/1999/xlink" width="500" zoomAndPan="magnify" viewBox="0 0 375 374.999991" height="500" preserveAspectRatio="xMidYMid meet" version="1.0"><defs><clipPath id="2cd4d91064"><path d="M 37.5 158.839844 L 91.5 158.839844 L 91.5 212.839844 L 37.5 212.839844 Z M 37.5 158.839844 " clip-rule="nonzero"/></clipPath><clipPath id="6010905036"><path d="M 98.636719 168.636719 L 133.136719 168.636719 L 133.136719 203.136719 L 98.636719 203.136719 Z M 98.636719 168.636719 " clip-rule="nonzero"/></clipPath></defs><g clip-path="url(#2cd4d91064)"><path fill="#ffffff" d="M 64.5 158.839844 C 49.589844 158.839844 37.5 170.929688 37.5 185.839844 C 37.5 200.75 49.589844 212.839844 64.5 212.839844 C 79.410156 212.839844 91.5 200.75 91.5 185.839844 C 91.5 170.929688 79.410156 158.839844 64.5 158.839844 " fill-opacity="1" fill-rule="nonzero"/></g><path stroke-linecap="butt" transform="matrix(2.997871, 0.000000000000000298, -0.000000000000000298, 3, 143.17523, 187.499988)" fill="none" stroke-linejoin="miter" d="M 0.000183781 0.00000410417 L 71.55227 0.00000410417 " stroke="#ffffff" stroke-width="1" stroke-opacity="1" stroke-miterlimit="4"/><g clip-path="url(#6010905036)"><path fill="#ffffff" d="M 115.886719 168.636719 C 106.359375 168.636719 98.636719 176.359375 98.636719 185.886719 C 98.636719 195.414062 106.359375 203.136719 115.886719 203.136719 C 125.414062 203.136719 133.136719 195.414062 133.136719 185.886719 C 133.136719 176.359375 125.414062 168.636719 115.886719 168.636719 " fill-opacity="1" fill-rule="nonzero"/></g></svg>